PathFileType	4	(X/Y/Z)	14_1_52_p1_0-157_filt_butterworth.trc
DataRate	CameraRate	NumFrames	NumMarkers	Units	OrigDataRate	OrigDataStartFrame	OrigNumFrames
55.0	55.0	5	27	m	55.0	137	157
Frame#	Time	RHip			RKnee			RAnkle			RBigToe			RSmallToe			RHeel			LHip			LKnee			LAnkle			LBigToe			LSmallToe			LHeel			Neck			Head			Nose			RShoulder			RElbow			RWrist			RThumb			RIndex			RPinky			LShoulder			LElbow			LWrist			LThumb			LIndex			LPinky			
		X1	Y1	Z1	X2	Y2	Z2	X3	Y3	Z3	X4	Y4	Z4	X5	Y5	Z5	X6	Y6	Z6	X7	Y7	Z7	X8	Y8	Z8	X9	Y9	Z9	X10	Y10	Z10	X11	Y11	Z11	X12	Y12	Z12	X13	Y13	Z13	X14	Y14	Z14	X15	Y15	Z15	X16	Y16	Z16	X17	Y17	Z17	X18	Y18	Z18	X19	Y19	Z19	X20	Y20	Z20	X21	Y21	Z21	X22	Y22	Z22	X23	Y23	Z23	X24	Y24	Z24	X25	Y25	Z25	X26	Y26	Z26	X27	Y27	Z27	
137	2.4909090909090907	0.3108544420333258	0.6913921931735764	0.8461833331456876	0.29966665689948896	0.2784010888359715	0.8592418549028928	0.2874559983473488	-0.17845103895193157	0.918991813066567	0.2687597791848135	-0.1584065434311997	0.7015475473129936	0.33166029666372543	-0.17064158572629606	0.7335547797254289	0.2733803352865546	-0.24738551933692832	0.9724889745252481	0.08616204602473172	0.6978708097733857	0.8622344597762802	0.0909538147845272	0.28715102442045365	0.8712860248982757	0.09565278205294135	-0.16147590713765803	0.8847749165383957	0.1118477180247264	-0.13986081866115327	0.6973203179237821	0.0633846878147198	-0.14237832214562826	0.7124388223958438	0.11190826115920963	-0.20591208738608108	0.9087181142423706	0.20901725288321527	1.3424293180784594	0.8342184121357467	0.20426321374078077	1.6064042058147525	0.819102155936688	0.18706331988960284	1.4659480258926962	0.7269698492541651	0.37113356080183785	1.2511136299779384	0.8021005249403665	0.39935142347553454	1.0558451663531279	0.6165839757184273	0.2118119987289383	0.9331108301409781	0.45298196875095537	0.1042958477872054	0.8754268114823238	0.4513359523177414	0.1067584103036715	0.836629220399836	0.48078790393819665	0.16438001828357748	0.8051547870581608	0.5096951469722731	0.03570493114062947	1.254082188984709	0.8486940882871272	-0.05749141819984786	1.0152122111381625	0.777799344115282	0.01933723461204291	0.9448922024967374	0.4826471197664147	0.08078335486877058	0.9607075987242606	0.380339450755505	0.07088233163219375	0.929597192843433	0.3447511824908416	0.05611447322121976	0.8858335187899934	0.38009440706508113	
138	2.5090909090909093	0.31086042158067306	0.691708622783711	0.8431931204506417	0.3002369833817269	0.2774530264173304	0.8607956049454774	0.2874630157674564	-0.17842022161694182	0.9189877196336137	0.268786751658554	-0.16053770059740313	0.7014268640948079	0.3314728181966309	-0.1705263728255483	0.7331462453272829	0.273379675798668	-0.2474852547715965	0.9725086164790875	0.08631439741616377	0.6959434218376379	0.8621967825765292	0.09097710537047303	0.2870161748856159	0.8713804545287144	0.0956763728578419	-0.1616127059556549	0.8848138451251747	0.1123674225344928	-0.1427054271920605	0.6991655614876586	0.06325278990695651	-0.14276586206779462	0.7129432922699765	0.11179363547393667	-0.2056521124492696	0.9087056752276168	0.2089839274664675	1.342403701789941	0.8344696168241874	0.20304148658770008	1.6063340092483391	0.8213751640825848	0.18675966971669233	1.4665592167291497	0.7283452933929996	0.3695577960556482	1.2513633022940163	0.8016137883201888	0.39494551257479227	1.0494107565941604	0.6288262702300782	0.20748641477410035	0.9126153494153266	0.4629494595651722	0.1030912530763557	0.8606168170325199	0.4671323193829527	0.10680063567509951	0.8135050508583351	0.5025695337679446	0.16149006446620295	0.7887430660591367	0.5100615027657787	0.03543483087391574	1.2540212504462687	0.8476713283864244	-0.05643852586825365	1.0151288810182875	0.770966458441078	0.03171915530079081	0.9486076792204721	0.4794319123336569	0.09988578049110819	0.9645258947009678	0.3904608717444361	0.0915054492159132	0.9305249313866377	0.3547633437595928	0.0765429631881786	0.8888575147024582	0.3835742533702675	
139	2.527272727272728	0.3109149905679325	0.6923833298993198	0.8401626098714026	0.30077798948730533	0.2765351576667844	0.8625180531712355	0.287486914206422	-0.1782792655059428	0.918970927742468	0.2689958250536889	-0.16259372858544457	0.701126523394682	0.3313055460317368	-0.1703808021553934	0.7326707209659004	0.27336523606208	-0.2475755120692943	0.9725177035558572	0.08642946312059151	0.6941836177339552	0.8621191194404564	0.09098696510283705	0.28697497510238823	0.8714326858017508	0.09568256945745929	-0.1616373405262989	0.8848355344022628	0.11308438970982254	-0.14524893512632894	0.7016321505031561	0.06319678886572944	-0.14301380687539733	0.7132352719334162	0.11171412303502094	-0.20554913016406554	0.9087944774748464	0.2086377817347237	1.342272576072271	0.8357809278800605	0.2017947835274541	1.6063179649290682	0.8230632216883127	0.1866860447212218	1.4672779468561905	0.7288852261994129	0.36801489034486257	1.2515343447986775	0.8025491815969614	0.39051590673239106	1.042275196297903	0.6404392842507505	0.20545109397141897	0.8927971402483093	0.47806405522400897	0.10249230712343393	0.8458518271279837	0.4865018993657953	0.1075380992281454	0.7938227104219437	0.521661619505108	0.1591906477777983	0.7756903342749463	0.508917195682472	0.034953664921737654	1.2537534597485642	0.8458993390365135	-0.054573688477820265	1.014140242689267	0.7625092810219872	0.044636465917281015	0.9510462607649226	0.4773919177412854	0.1194973021171748	0.9643289649383908	0.4030166178514445	0.11326353380722413	0.9294914050707778	0.36770748580992074	0.0970179530938392	0.8871845024824057	0.39175268708963173	
140	2.5454545454545454	0.3109645498075775	0.6933822491715924	0.8372237627910458	0.30126540106741545	0.2757559147718105	0.8641896065839223	0.28752854664861033	-0.17802531746643585	0.9189435541718709	0.2692179307958286	-0.16419979921160055	0.7008929112421329	0.3311947908877405	-0.17032110308473297	0.7323687549831069	0.2733206474732069	-0.24761850909000377	0.9724527184341184	0.08646456453901077	0.6926555834813204	0.8617704514352531	0.09098970279697403	0.2869743819459791	0.8714255070444166	0.09567478486921455	-0.16156726657929077	0.8848420836085371	0.11383190888684938	-0.14685524165507657	0.7043769711454972	0.06319607778583525	-0.1431282591091515	0.7133436388719275	0.11172045565142052	-0.2055746615431822	0.9089268423437651	0.20800818182311964	1.3420377143734257	0.8381721557884645	0.20069485871990783	1.6063795044422813	0.8238990396981485	0.18677556057741507	1.4680238500011862	0.728839183847126	0.36645442889774116	1.2516407629156978	0.8040505003994484	0.3860243260690595	1.034965925801764	0.6499504417338582	0.20604411533386457	0.8747748735597601	0.49699341388936624	0.1031863285128074	0.8301754139504014	0.5063916495177307	0.10938204782348776	0.7774936258364209	0.5357194658168762	0.1571413328613297	0.7649336468673397	0.5101882940661253	0.034337784967975994	1.2533147442213786	0.8436515107771017	-0.05187088147743679	1.0127419122934793	0.7525998282672841	0.05775565134313826	0.9514316444937573	0.4780278213629954	0.13942953700097388	0.9615253510133706	0.41492480416171945	0.13639278481301229	0.9270538697187377	0.3802461671472744	0.11733982527514628	0.8818498837796761	0.4011198914853184	
141	2.5636363636363635	0.31094440569754417	0.6947505163188358	0.8343712974624511	0.3016987821872511	0.27520051753309904	0.8656482058854768	0.2875892371355467	-0.1776575625462039	0.9189120303265228	0.2693470732647141	-0.16496822112453421	0.7008880680313233	0.33112991775988565	-0.1703243745627444	0.732246449274434	0.2732401039502192	-0.24758614494096334	0.9722813783268078	0.08638867176614522	0.6912918046631066	0.8611982871109466	0.09099322586011556	0.28697934692924654	0.8713786467665197	0.09565583626579002	-0.16142613434707326	0.8848351907747742	0.11452937711270822	-0.14739153640356795	0.7071309119099554	0.06321330672509581	-0.14315554086054347	0.7133740078610326	0.11181466719251491	-0.2056571870780692	0.908957373434482	0.20725279790858187	1.3417062657536136	0.841080671593522	0.19984121780693806	1.6065098071108364	0.8238343524242544	0.1868955876640122	1.46858615487563	0.728656805935872	0.3649291061454021	1.2514098832636857	0.8053100107999407	0.38159106586065045	1.0276076045251146	0.6566430490665651	0.20912401757208948	0.8594050654803091	0.5175602628065734	0.10577307361103623	0.8123860954605745	0.5265827633258865	0.11265282722894071	0.763327313211011	0.546412579605797	0.15506071591497078	0.7552718657966113	0.5168286587161529	0.03369342572125006	1.252762127416255	0.8412657021139467	-0.04837110267082928	1.0115241124776395	0.7421534530331639	0.07089371591787355	0.9484164234778573	0.4833236963638467	0.15995292900990216	0.9561705456596004	0.42666831596785126	0.16070708550888946	0.9214856705309877	0.3920057395410489	0.13719490916110044	0.8727915035782097	0.411419331266837	
